
<svg width="800px" fill="steelblue" height="800px" viewBox="0 0 128 128" version="1.1" xml:space="preserve" xmlns="http://www.w3.org/2000/svg" xmlns:xlink="http://www.w3.org/1999/xlink">
<path class="st13" d="M45.183,11.223c-3.357,5.226-3.77,11.334-1.703,16.649      c5.988-0.788,11.559-3.997,14.916-9.223C61.753,13.423,62.166,7.315,60.099,2C54.111,2.788,48.54,5.997,45.183,11.223z" id="XMLID_733_"/>
<path class="st14" d="M43.931,36.342c-1.104,0-2-0.896-2-2v-2.594c0-4.864-2.416-9.352-6.461-12.007      c-0.923-0.606-1.181-1.846-0.575-2.77c0.606-0.924,1.845-1.181,2.77-0.575c5.177,3.397,8.267,9.136,8.267,15.352v2.594      C45.931,35.446,45.036,36.342,43.931,36.342z"/>
<path class="st123" d="M56.048,107.476c10.097-2.316,22.099-15.179,25.973-28.413     c3.262-10.394,2.978-19.246,1.727-25.764c-2.365-12.319-12.479-21.778-24.756-22.34c-0.435-0.02-0.872-0.03-1.311-0.03     c-4.47,0-8.693,1.048-12.451,2.903c-0.776,0.383-1.685,0.383-2.461,0c-3.758-1.855-7.981-2.903-12.451-2.903     C14.678,30.929,2,42.18,2,59.398C2,83.177,15.729,116.726,56.048,107.476z" id="XMLID_737_"/>
<path d="M19.35,82.47c-0.13,0-0.26-0.01-0.39-0.04c-0.13-0.02-0.25-0.06-0.37-0.11c-0.13-0.05-0.24-0.11-0.35-0.18     c-0.11-0.08-0.21-0.16-0.3-0.25c-0.38-0.38-0.59-0.89-0.59-1.42c0-0.52,0.21-1.04,0.59-1.41c0.46-0.47,1.15-0.68,1.8-0.55     c0.13,0.03,0.26,0.07,0.38,0.12c0.12,0.05,0.23,0.11,0.34,0.18c0.11,0.07,0.21,0.16,0.31,0.25c0.37,0.37,0.58,0.89,0.58,1.41     c0,0.53-0.21,1.04-0.58,1.42c-0.1,0.09-0.2,0.17-0.31,0.25c-0.11,0.07-0.22,0.13-0.34,0.18c-0.12,0.05-0.25,0.09-0.38,0.11     C19.61,82.46,19.48,82.47,19.35,82.47z"/>
<path class="st124" d="M22.667,59.398c0-13.091,7.333-22.727,17.721-26.597c-3.13-1.202-6.52-1.872-10.071-1.872     C14.678,30.929,2,42.18,2,59.398c0,23.346,13.236,56.104,51.872,48.538C31.031,102.467,22.667,77.957,22.667,59.398z" id="XMLID_434_"/>
<path class="st125" d="M12.333,59.398c0-15.219,9.909-25.771,23.01-28.016c-1.631-0.295-3.31-0.453-5.026-0.453     C14.678,30.929,2,42.18,2,59.398c0,22.192,11.961,52.886,46.328,49.369C21.858,105.773,12.333,79.2,12.333,59.398z" id="XMLID_438_"/>
<path class="st25" d="M15.942,76c-0.913,0-1.737-0.629-1.948-1.556c-1.114-4.893-1.704-10.096-1.704-15.046     c0-3.165,0.408-6.226,1.213-9.098c0.298-1.063,1.401-1.687,2.466-1.386c1.063,0.298,1.684,1.402,1.386,2.466     c-0.707,2.52-1.065,5.218-1.065,8.018c0,4.656,0.555,9.552,1.604,14.158c0.245,1.077-0.429,2.149-1.506,2.395     C16.239,75.983,16.09,76,15.942,76z"/>
<path class="st126" d="M47.091,70.675c0.4,0.381,0.913,0.571,1.425,0.571c0.545,0,1.09-0.214,1.497-0.641     c0.788-0.826,0.756-2.134-0.07-2.922c-0.699-0.666-16.957-16.5-3.149-32.501c0.539-0.625,0.632-1.478,0.319-2.186     c-0.638,0.259-1.269,0.532-1.884,0.836c-0.776,0.383-1.685,0.383-2.461,0c-0.046-0.023-0.093-0.042-0.139-0.064     C28.214,52.278,46.896,70.489,47.091,70.675z" id="XMLID_526_"/>
<path class="st127" d="M101.767,124.654c8.563-1.981,18.742-12.982,22.027-24.3     c2.767-8.889,2.526-16.46,1.464-22.035c-2.006-10.536-10.583-18.626-20.995-19.107c-0.368-0.017-0.739-0.026-1.112-0.026     c-3.791,0-7.372,0.896-10.56,2.483c-0.658,0.328-1.429,0.328-2.087,0c-3.187-1.587-6.769-2.483-10.56-2.483     c-13.263,0-24.62,9.635-24.015,24.348C56.767,103.889,67.574,132.564,101.767,124.654z" id="XMLID_729_"/>
<path class="st128" d="M123.795,96.22c-3.286,11.319-13.464,22.319-22.027,24.3     c-32.882,7.607-44.904-18.631-45.779-38.741c-0.035,0.577-0.058,1.16-0.058,1.755c0,20.337,11.644,49.03,45.837,41.12     c8.563-1.981,18.742-12.982,22.027-24.3c1.892-6.079,2.376-11.54,2.155-16.169C125.781,87.828,125.15,91.864,123.795,96.22z" id="XMLID_32_"/>
<ellipse class="st128" cx="90.965" cy="90.526" id="XMLID_728_" rx="13.213" ry="19.633"/>
<path class="st129" d="M94.216,92.526h-5.194c-1.104,0-2-0.896-2-2s0.896-2,2-2h5.194c1.104,0,2,0.896,2,2      S95.32,92.526,94.216,92.526z"/>
<path class="st129" d="M94.216,83.937h-5.194c-1.104,0-2-0.896-2-2s0.896-2,2-2h5.194c1.104,0,2,0.896,2,2      S95.32,83.937,94.216,83.937z"/>
<path class="st129" d="M94.216,101.115h-5.194c-1.104,0-2-0.896-2-2s0.896-2,2-2h5.194c1.104,0,2,0.896,2,2      S95.32,101.115,94.216,101.115z"/>
</svg>