<svg xmlns="http://www.w3.org/2000/svg">
    <symbol id="icon-burger-open" viewBox="0 0 32 32" fill="none" xmlns="http://www.w3.org/2000/svg">
        <path d="M32 19H0V23H32V19Z" fill="currentColor"/>
        <path d="M32 9H0V13H32V9Z" fill="currentColor"/>
    </symbol>
    <symbol id="icon-burger-close" viewBox="0 0 32 32" fill="none" xmlns="http://www.w3.org/2000/svg">
        <path d="M28 6.29957L18.2996 16L28 25.7004L25.7004 28L16 18.2996L6.29957 28L4 25.7004L13.7004 16L4 6.29957L6.29957 4L16 13.7004L25.7004 4L28 6.29957Z" fill="white"/>
    </symbol>
    <symbol id="icon-arrow-down" viewBox="0 0 24 24" fill="none" xmlns="http://www.w3.org/2000/svg">
        <path d="M7 10L12 15L17 10" stroke="currentColor" stroke-width="1.5" stroke-linecap="round" stroke-linejoin="round"/>
    </symbol>  
    <symbol id="icon-ig" viewBox="0 0 24 24" fill="none" xmlns="http://www.w3.org/2000/svg">
        <path fill-rule="evenodd" clip-rule="evenodd" d="M12 18C15.3137 18 18 15.3137 18 12C18 8.68629 15.3137 6 12 6C8.68629 6 6 8.68629 6 12C6 15.3137 8.68629 18 12 18ZM12 16C14.2091 16 16 14.2091 16 12C16 9.79086 14.2091 8 12 8C9.79086 8 8 9.79086 8 12C8 14.2091 9.79086 16 12 16Z" fill="currentColor"/>
        <path d="M18 5C17.4477 5 17 5.44772 17 6C17 6.55228 17.4477 7 18 7C18.5523 7 19 6.55228 19 6C19 5.44772 18.5523 5 18 5Z" fill="currentColor"/>
        <path fill-rule="evenodd" clip-rule="evenodd" d="M1.65396 4.27606C1 5.55953 1 7.23969 1 10.6V13.4C1 16.7603 1 18.4405 1.65396 19.7239C2.2292 20.8529 3.14708 21.7708 4.27606 22.346C5.55953 23 7.23969 23 10.6 23H13.4C16.7603 23 18.4405 23 19.7239 22.346C20.8529 21.7708 21.7708 20.8529 22.346 19.7239C23 18.4405 23 16.7603 23 13.4V10.6C23 7.23969 23 5.55953 22.346 4.27606C21.7708 3.14708 20.8529 2.2292 19.7239 1.65396C18.4405 1 16.7603 1 13.4 1H10.6C7.23969 1 5.55953 1 4.27606 1.65396C3.14708 2.2292 2.2292 3.14708 1.65396 4.27606ZM13.4 3H10.6C8.88684 3 7.72225 3.00156 6.82208 3.0751C5.94524 3.14674 5.49684 3.27659 5.18404 3.43597C4.43139 3.81947 3.81947 4.43139 3.43597 5.18404C3.27659 5.49684 3.14674 5.94524 3.0751 6.82208C3.00156 7.72225 3 8.88684 3 10.6V13.4C3 15.1132 3.00156 16.2777 3.0751 17.1779C3.14674 18.0548 3.27659 18.5032 3.43597 18.816C3.81947 19.5686 4.43139 20.1805 5.18404 20.564C5.49684 20.7234 5.94524 20.8533 6.82208 20.9249C7.72225 20.9984 8.88684 21 10.6 21H13.4C15.1132 21 16.2777 20.9984 17.1779 20.9249C18.0548 20.8533 18.5032 20.7234 18.816 20.564C19.5686 20.1805 20.1805 19.5686 20.564 18.816C20.7234 18.5032 20.8533 18.0548 20.9249 17.1779C20.9984 16.2777 21 15.1132 21 13.4V10.6C21 8.88684 20.9984 7.72225 20.9249 6.82208C20.8533 5.94524 20.7234 5.49684 20.564 5.18404C20.1805 4.43139 19.5686 3.81947 18.816 3.43597C18.5032 3.27659 18.0548 3.14674 17.1779 3.0751C16.2777 3.00156 15.1132 3 13.4 3Z" fill="currentColor"/>
    </symbol>
    <symbol id="icon-linkedin" viewBox="0 0 24 24" fill="none" xmlns="http://www.w3.org/2000/svg">
        <path d="M6.5 8C7.32843 8 8 7.32843 8 6.5C8 5.67157 7.32843 5 6.5 5C5.67157 5 5 5.67157 5 6.5C5 7.32843 5.67157 8 6.5 8Z" fill="currentColor"/>
        <path d="M5 10C5 9.44772 5.44772 9 6 9H7C7.55228 9 8 9.44771 8 10V18C8 18.5523 7.55228 19 7 19H6C5.44772 19 5 18.5523 5 18V10Z" fill="currentColor"/>
        <path d="M11 19H12C12.5523 19 13 18.5523 13 18V13.5C13 12 16 11 16 13V18.0004C16 18.5527 16.4477 19 17 19H18C18.5523 19 19 18.5523 19 18V12C19 10 17.5 9 15.5 9C13.5 9 13 10.5 13 10.5V10C13 9.44771 12.5523 9 12 9H11C10.4477 9 10 9.44772 10 10V18C10 18.5523 10.4477 19 11 19Z" fill="currentColor"/>
        <path fill-rule="evenodd" clip-rule="evenodd" d="M20 1C21.6569 1 23 2.34315 23 4V20C23 21.6569 21.6569 23 20 23H4C2.34315 23 1 21.6569 1 20V4C1 2.34315 2.34315 1 4 1H20ZM20 3C20.5523 3 21 3.44772 21 4V20C21 20.5523 20.5523 21 20 21H4C3.44772 21 3 20.5523 3 20V4C3 3.44772 3.44772 3 4 3H20Z" fill="currentColor"/>
    </symbol>
    <symbol id="icon-breakfast" xmlns="http://www.w3.org/2000/svg" viewBox="0 0 888 485.489" xmlns:xlink="http://www.w3.org/1999/xlink" role="img" artist="Katerina Limpitsouni" source="https://undraw.co/"><title>breakfast</title><path d="M275.41211,460.30048H246.99329a3.76777,3.76777,0,0,0-3.76777,3.76776v12.47387a3.76777,3.76777,0,0,0,3.76777,3.76777h4.70941V499h19V480.30988h4.70941a3.76777,3.76777,0,0,0,3.76776-3.76777V464.06824A3.76777,3.76777,0,0,0,275.41211,460.30048Z" transform="translate(-156 -207.2555)" fill="#5281cc"/><path d="M303.87661,574.46128a146.10549,146.10549,0,0,1-25.418-86.62437,3.08142,3.08142,0,0,0-2.40522-3.075V479.372H246.03933v5.315h-.41356a3.07971,3.07971,0,0,0-3.06724,3.30786q3.54683,49.44186-23.95358,88.677a8.4873,8.4873,0,0,0-1.53606,5.14352l3.28188,101.51817a8.78815,8.78815,0,0,0,8.713,8.48191h67.88732a8.79123,8.79123,0,0,0,8.71824-8.63152l1.26471-98.56588A17.78875,17.78875,0,0,0,303.87661,574.46128Z" transform="translate(-156 -207.2555)" fill="#3f3d56"/><path d="M269.48783,464.36493a8.12881,8.12881,0,0,1-16.25763,0" transform="translate(-156 -207.2555)" opacity="0.2"/><path d="M293.12991,608.18244h-8.22064a21.57614,21.57614,0,0,0-42.6488,0h-8.22118a6.06671,6.06671,0,0,0-5.99616,6.98918l8.92944,58.04135h51.27407l10.84608-57.84582A6.0667,6.0667,0,0,0,293.12991,608.18244Z" transform="translate(-156 -207.2555)" fill="#5281cc"/><polygon points="827.952 307.634 825.98 386.448 823.538 484.181 740.414 484.181 737.552 369.675 736 307.634 827.952 307.634" fill="#e6e6e6"/><rect x="775.72312" y="265.70393" width="11.76981" height="155.95002" fill="#5281cc"/><path d="M978.06676,574.27527l-2.22611,112.02H900.07391l-2.60826-131.24365a51.63393,51.63393,0,0,1,40.82688,5.61536C950.95161,568.15405,965.173,572.18424,978.06676,574.27527Z" transform="translate(-156 -207.2555)" fill="#3f3d56"/><rect x="752.03074" y="379.63032" width="10.79992" height="10.79992" fill="#e6e6e6"/><rect x="759.38688" y="357.56192" width="10.79992" height="10.79992" fill="#e6e6e6"/><rect x="936.42384" y="575.81564" width="10.79992" height="10.79992" transform="translate(375.57517 -653.92108) rotate(36.56259)" fill="#e6e6e6"/><rect x="955.93676" y="594.95132" width="10.79992" height="10.79992" transform="translate(390.81432 -661.77916) rotate(36.56259)" fill="#e6e6e6"/><rect x="922.83416" y="605.98552" width="10.79992" height="10.79992" transform="translate(390.87303 -639.88846) rotate(36.56259)" fill="#e6e6e6"/><circle cx="805.14765" cy="351.03508" r="2.20684" fill="#3f3d56"/><circle cx="760.27524" cy="336.32281" r="2.20684" fill="#3f3d56"/><circle cx="797.79152" cy="320.87493" r="2.20684" fill="#3f3d56"/><circle cx="444.50808" cy="241.75402" r="241.75402" fill="#5281cc"/><path d="M600.50808,625.46663a176.45595,176.45595,0,1,1,124.77436-51.68275A175.30352,175.30352,0,0,1,600.50808,625.46663Zm0-342.0314c-91.29808,0-165.5743,74.27621-165.5743,165.57429,0,91.2977,74.27622,165.5743,165.5743,165.5743,91.2977,0,165.57429-74.2766,165.57429-165.5743C766.08237,357.71144,691.80578,283.43523,600.50808,283.43523Z" transform="translate(-156 -207.2555)" opacity="0.2"/><circle cx="444.50808" cy="241.75402" r="171.0157" fill="#3f3d56"/><path d="M473.32742,380.62742a21.704,21.704,0,1,1,38.68118-19.69819l48.31632,94.87836a21.704,21.704,0,1,1-38.68118,19.69819Z" transform="translate(-156 -207.2555)" fill="#ff6584"/><path d="M478.71655,391.21l-2.23-4.379c11.12916-8.64736,24.19788-15.007,38.68118-19.69819l2.23,4.379C501.72232,374.77607,488.38616,380.817,478.71655,391.21Z" transform="translate(-156 -207.2555)" opacity="0.2"/><path d="M489.12314,411.64534l-2.23-4.379c11.12915-8.64736,24.19788-15.007,38.68117-19.69819l2.23,4.379C512.12891,395.21141,498.79275,401.25236,489.12314,411.64534Z" transform="translate(-156 -207.2555)" opacity="0.2"/><path d="M499.52973,432.08068l-2.23-4.379c11.12915-8.64736,24.19788-15.007,38.68118-19.69819l2.23,4.379C522.5355,415.64675,509.19935,421.6877,499.52973,432.08068Z" transform="translate(-156 -207.2555)" opacity="0.2"/><path d="M509.93632,452.516l-2.23-4.379c11.12916-8.64736,24.19788-15.007,38.68118-19.69819l2.23,4.379C532.94209,436.08209,519.60594,442.123,509.93632,452.516Z" transform="translate(-156 -207.2555)" opacity="0.2"/><path d="M520.34292,472.95136l-2.23-4.379c11.12916-8.64736,24.19788-15.007,38.68118-19.69819l2.23,4.379C543.34868,456.51743,530.01253,462.55838,520.34292,472.95136Z" transform="translate(-156 -207.2555)" opacity="0.2"/><path d="M437.07906,416.14643a21.704,21.704,0,1,1,38.68118-19.6982l48.31632,94.87837a21.704,21.704,0,0,1-38.68118,19.69819Z" transform="translate(-156 -207.2555)" fill="#ff6584"/><path d="M442.46819,426.729l-2.23-4.379c11.12916-8.64736,24.19788-15.007,38.68118-19.69819l2.23,4.379C465.474,410.29508,452.1378,416.336,442.46819,426.729Z" transform="translate(-156 -207.2555)" opacity="0.2"/><path d="M452.87478,447.16435l-2.23-4.379c11.12915-8.64736,24.19788-15.007,38.68118-19.69819l2.23,4.379C475.88055,430.73042,462.5444,436.77137,452.87478,447.16435Z" transform="translate(-156 -207.2555)" opacity="0.2"/><path d="M463.28137,467.59969l-2.23-4.379c11.12915-8.64736,24.19788-15.007,38.68118-19.69819l2.23,4.379C486.28714,451.16576,472.951,457.20671,463.28137,467.59969Z" transform="translate(-156 -207.2555)" opacity="0.2"/><path d="M473.688,488.035l-2.23-4.379c11.12916-8.64736,24.19788-15.007,38.68118-19.69819l2.23,4.379C496.69373,471.6011,483.35758,477.64205,473.688,488.035Z" transform="translate(-156 -207.2555)" opacity="0.2"/><path d="M484.09456,508.47037l-2.23-4.379c11.12916-8.64736,24.19788-15.007,38.68118-19.69819l2.23,4.379C507.10032,492.03644,493.76417,498.07739,484.09456,508.47037Z" transform="translate(-156 -207.2555)" opacity="0.2"/><path d="M714.77766,454.45093l.15257.00013a25.8881,25.8881,0,0,0,24.23924-16.23619,84.50284,84.50284,0,0,0,5.9231-31.69393c-.27144-45.91073-37.62223-83.57515-83.52936-84.21021a84.74394,84.74394,0,0,0-35.27687,162.32018,25.66668,25.66668,0,0,0,28.50566-5.28585A84.45815,84.45815,0,0,1,714.77766,454.45093Z" transform="translate(-156 -207.2555)" fill="#e6e6e6"/><circle cx="515.24639" cy="193.55868" r="27.98439" fill="#f9a825"/><circle cx="454.42624" cy="187.11516" r="3.29669" fill="#3f3d56"/><circle cx="345.59806" cy="190.22453" r="3.29669" fill="#3f3d56"/><circle cx="471.99609" cy="152.94948" r="3.29669" fill="#3f3d56"/><circle cx="471.90243" cy="247.97277" r="3.29669" fill="#3f3d56"/><circle cx="537.19934" cy="146.14069" r="3.29669" fill="#3f3d56"/><circle cx="324.20705" cy="236.31261" r="3.29669" fill="#3f3d56"/><circle cx="348.30472" cy="283.7306" r="3.29669" fill="#3f3d56"/><circle cx="499.69951" cy="289.94935" r="12.43751" fill="#ff6584"/><path d="M665.02764,497.9822a9.32813,9.32813,0,0,1-18.65626,0" transform="translate(-156 -207.2555)" opacity="0.2"/><path d="M646.37138,496.42751a9.32813,9.32813,0,0,1,18.65626,0" transform="translate(-156 -207.2555)" opacity="0.2"/><ellipse cx="495.03545" cy="285.67396" rx="0.77734" ry="1.16602" fill="#ff6584"/><ellipse cx="499.69951" cy="284.11927" rx="0.77734" ry="1.16602" fill="#ff6584"/><ellipse cx="499.69951" cy="294.22475" rx="0.77734" ry="1.16602" fill="#ff6584"/><ellipse cx="504.36357" cy="288.00599" rx="0.77734" ry="1.16602" fill="#ff6584"/><ellipse cx="503.58623" cy="296.55678" rx="0.77734" ry="1.16602" fill="#ff6584"/><ellipse cx="494.2581" cy="292.67006" rx="0.77734" ry="1.16602" fill="#ff6584"/><circle cx="524.57452" cy="256.52356" r="12.43751" fill="#ff6584"/><path d="M689.90265,464.5564a9.32813,9.32813,0,0,1-18.65626,0" transform="translate(-156 -207.2555)" opacity="0.2"/><path d="M671.24639,463.00172a9.32813,9.32813,0,0,1,18.65626,0" transform="translate(-156 -207.2555)" opacity="0.2"/><ellipse cx="519.91046" cy="252.24816" rx="0.77734" ry="1.16602" fill="#ff6584"/><ellipse cx="524.57452" cy="250.69348" rx="0.77734" ry="1.16602" fill="#ff6584"/><ellipse cx="524.57452" cy="260.79895" rx="0.77734" ry="1.16602" fill="#ff6584"/><ellipse cx="529.23859" cy="254.5802" rx="0.77734" ry="1.16602" fill="#ff6584"/><ellipse cx="528.46124" cy="263.13098" rx="0.77734" ry="1.16602" fill="#ff6584"/><ellipse cx="519.13311" cy="259.24426" rx="0.77734" ry="1.16602" fill="#ff6584"/><circle cx="549.44953" cy="273.62513" r="12.43751" fill="#5281cc"/><path d="M714.77766,481.658a9.32813,9.32813,0,0,1-18.65626,0" transform="translate(-156 -207.2555)" opacity="0.2"/><path d="M696.1214,480.10329a9.32813,9.32813,0,0,1,18.65626,0" transform="translate(-156 -207.2555)" opacity="0.2"/><ellipse cx="544.78547" cy="269.34974" rx="0.77734" ry="1.16602" fill="#5281cc"/><ellipse cx="549.44953" cy="267.79505" rx="0.77734" ry="1.16602" fill="#5281cc"/><ellipse cx="549.44953" cy="277.90052" rx="0.77734" ry="1.16602" fill="#5281cc"/><ellipse cx="554.1136" cy="271.68177" rx="0.77734" ry="1.16602" fill="#5281cc"/><ellipse cx="553.33625" cy="280.23255" rx="0.77734" ry="1.16602" fill="#5281cc"/><ellipse cx="544.00812" cy="276.34583" rx="0.77734" ry="1.16602" fill="#5281cc"/><circle cx="487.262" cy="275.17982" r="12.43751" fill="#5281cc"/><path d="M652.59013,483.21266a9.32813,9.32813,0,0,1-18.65626,0" transform="translate(-156 -207.2555)" opacity="0.2"/><path d="M633.93387,481.658a9.32813,9.32813,0,0,1,18.65626,0" transform="translate(-156 -207.2555)" opacity="0.2"/><ellipse cx="482.59794" cy="270.90442" rx="0.77734" ry="1.16602" fill="#5281cc"/><ellipse cx="487.262" cy="269.34974" rx="0.77734" ry="1.16602" fill="#5281cc"/><ellipse cx="487.262" cy="279.45521" rx="0.77734" ry="1.16602" fill="#5281cc"/><ellipse cx="491.92607" cy="273.23646" rx="0.77734" ry="1.16602" fill="#5281cc"/><ellipse cx="491.14872" cy="281.78724" rx="0.77734" ry="1.16602" fill="#5281cc"/><ellipse cx="481.8206" cy="277.90052" rx="0.77734" ry="1.16602" fill="#5281cc"/><circle cx="515.24639" cy="280.62122" r="12.43751" fill="#5281cc"/><path d="M680.57452,488.65407a9.32813,9.32813,0,1,1-18.65626,0" transform="translate(-156 -207.2555)" opacity="0.2"/><path d="M661.91826,487.09938a9.32813,9.32813,0,1,1,18.65626,0" transform="translate(-156 -207.2555)" opacity="0.2"/><ellipse cx="510.58233" cy="276.34583" rx="0.77734" ry="1.16602" fill="#5281cc"/><ellipse cx="515.24639" cy="274.79114" rx="0.77734" ry="1.16602" fill="#5281cc"/><ellipse cx="515.24639" cy="284.89662" rx="0.77734" ry="1.16602" fill="#5281cc"/><ellipse cx="519.91046" cy="278.67786" rx="0.77734" ry="1.16602" fill="#5281cc"/><ellipse cx="519.13311" cy="287.22865" rx="0.77734" ry="1.16602" fill="#5281cc"/><ellipse cx="509.80498" cy="283.34193" rx="0.77734" ry="1.16602" fill="#5281cc"/><circle cx="534.68" cy="293.83607" r="12.43751" fill="#ff6584"/><path d="M700.00812,501.86892a9.32812,9.32812,0,1,1-18.65625,0" transform="translate(-156 -207.2555)" opacity="0.2"/><path d="M681.35187,500.31423a9.32812,9.32812,0,1,1,18.65625,0" transform="translate(-156 -207.2555)" opacity="0.2"/><ellipse cx="530.01593" cy="289.56068" rx="0.77734" ry="1.16602" fill="#ff6584"/><ellipse cx="534.68" cy="288.00599" rx="0.77734" ry="1.16602" fill="#ff6584"/><ellipse cx="534.68" cy="298.11147" rx="0.77734" ry="1.16602" fill="#ff6584"/><ellipse cx="539.34406" cy="291.89271" rx="0.77734" ry="1.16602" fill="#ff6584"/><ellipse cx="538.56672" cy="300.4435" rx="0.77734" ry="1.16602" fill="#ff6584"/><ellipse cx="529.23859" cy="296.55678" rx="0.77734" ry="1.16602" fill="#ff6584"/><circle cx="374.73442" cy="246.41808" r="3.29669" fill="#3f3d56"/><polygon points="464.345 366.08 385.17 344.123 388.203 332.857 467.378 354.815 464.345 366.08" fill="#f9a825"/><path d="M608.73806,569.57043a218.26828,218.26828,0,0,1-82.07767,0V557.89212a250.99129,250.99129,0,0,0,82.07767,0Z" transform="translate(-156 -207.2555)" fill="#f9a825"/><path d="M617.17595,534.53552a218.26828,218.26828,0,0,1-82.07767,0V522.85721a250.99184,250.99184,0,0,0,82.07767,0Z" transform="translate(-156 -207.2555)" fill="#f9a825"/><path d="M645.558,548.54948a218.26833,218.26833,0,0,1-82.07768,0v-11.6783a250.9919,250.9919,0,0,0,82.07768,0Z" transform="translate(-156 -207.2555)" fill="#f9a825"/><path d="M652.46168,561.78489a218.26787,218.26787,0,0,1-82.07767,0v-11.6783a250.99184,250.99184,0,0,0,82.07767,0Z" transform="translate(-156 -207.2555)" fill="#f9a825"/><polygon points="520.531 371.824 439.554 385.426 437.676 373.904 518.652 360.302 520.531 371.824" fill="#f9a825"/><path d="M664.43494,580.57677a219.97,219.97,0,0,1-74.58008,34.78439l-4.80446-10.61152a252.95437,252.95437,0,0,0,74.58007-34.78439Z" transform="translate(-156 -207.2555)" fill="#f9a825"/><path d="M657.68866,545.16625a219.96991,219.96991,0,0,1-74.58007,34.78439l-4.80446-10.61152a252.95437,252.95437,0,0,0,74.58007-34.78439Z" transform="translate(-156 -207.2555)" fill="#f9a825"/><path d="M689.24339,545.87182a219.96977,219.96977,0,0,1-74.58008,34.78439l-4.80446-10.61151a252.95471,252.95471,0,0,0,74.58008-34.7844Z" transform="translate(-156 -207.2555)" fill="#f9a825"/><path d="M700.96153,554.97242a219.96991,219.96991,0,0,1-74.58007,34.78439L621.577,579.14529a252.95437,252.95437,0,0,0,74.58007-34.78439Z" transform="translate(-156 -207.2555)" fill="#f9a825"/><rect x="442.95339" y="324.92984" width="3.88672" height="3.88672" fill="#00bf71"/><rect x="454.61355" y="392.55878" width="3.88672" height="3.88672" fill="#00bf71"/><rect x="392.42602" y="324.92984" width="3.88672" height="3.88672" fill="#00bf71"/><rect x="482.59794" y="373.12517" width="3.88672" height="3.88672" fill="#00bf71"/><rect x="484.92997" y="350.5822" width="3.88672" height="3.88672" fill="#00bf71"/><rect x="574.85572" y="545.40019" width="5.44141" height="3.10938" transform="translate(250.70796 -437.19066) rotate(34.15572)" fill="#00bf71"/><rect x="620.71902" y="553.95098" width="5.44141" height="3.10938" transform="translate(263.41949 -461.46545) rotate(34.15572)" fill="#00bf71"/><rect x="564.75025" y="568.72051" width="5.44141" height="3.10938" transform="translate(262.05797 -427.49459) rotate(34.15572)" fill="#00bf71"/><rect x="596.62136" y="565.61114" width="5.44141" height="3.10938" transform="translate(1249.17714 182.37779) rotate(124.15572)" fill="#00bf71"/><rect x="617.60965" y="571.05255" width="5.44141" height="3.10938" transform="translate(1286.45203 173.50612) rotate(124.15572)" fill="#00bf71"/><rect x="673.57842" y="552.39629" width="5.44141" height="3.10938" transform="matrix(-0.56144, 0.82751, -0.82751, -0.56144, 1358.40581, 98.06043)" fill="#00bf71"/><rect y="483.24828" width="888" height="2.24072" fill="#3f3d56"/>
    </symbol>
    <symbol id="icon-arrow-right" version="1.1" xmlns="http://www.w3.org/2000/svg" xmlns:xlink="http://www.w3.org/1999/xlink" 
	 viewBox="0 0 512 512"  xml:space="preserve">
	    <path class="st0" d="M165.013,288.946h75.034c6.953,0,12.609,5.656,12.609,12.608v26.424c0,7.065,3.659,9.585,7.082,9.585
		c2.106,0,4.451-0.936,6.78-2.702l90.964-69.014c3.416-2.589,5.297-6.087,5.297-9.844c0-3.762-1.881-7.259-5.297-9.849
		l-90.964-69.014c-2.329-1.766-4.674-2.702-6.78-2.702c-3.424,0-7.082,2.519-7.082,9.584v26.425c0,6.952-5.656,12.608-12.609,12.608
		h-75.034c-8.707,0-15.79,7.085-15.79,15.788v34.313C149.223,281.862,156.305,288.946,165.013,288.946z" fill="currentColor"/>
	    <path class="st0" d="M256,0C114.842,0,0.002,114.84,0.002,256S114.842,512,256,512c141.158,0,255.998-114.84,255.998-256
		S397.158,0,256,0z M256,66.785c104.334,0,189.216,84.879,189.216,189.215S360.334,445.215,256,445.215S66.783,360.336,66.783,256
		S151.667,66.785,256,66.785z" fill="currentColor"/>
    </symbol>
    <symbol id="icon-banana" viewBox="0 0 1024 1024"  version="1.1" xmlns="http://www.w3.org/2000/svg">
        <path d="M709.696 703.722667l-1.066667-0.021334-432.341333-21.056a21.333333 21.333333 0 0 1-19.754667-16.554666l-71.317333-311.466667a21.333333 21.333333 0 0 1 33.28-22.037333c50.901333 36.842667 118.101333 61.76 211.562667 78.4 261.973333 46.656 395.52-22.250667 439.402666-44.906667l4.608-2.368c21.44-10.922667 46.592-6.656 67.392 11.52 31.104 27.2 51.584 86.122667 30.485334 146.112-23.744 67.413333-116.778667 133.482667-255.296 181.205333a21.504 21.504 0 0 1-6.954667 1.173334z" fill="#D8BC48" /><path d="M588.757333 946.901333a1185.706667 1185.706667 0 0 1-32.618666-0.448c-220.672-5.973333-469.781333-122.56-518.826667-333.845333-36.8-158.250667 3.2-322.730667 9.984-348.608l-5.205333-151.466667a21.312 21.312 0 0 1 18.666666-21.909333l106.666667-13.333333c5.781333-0.810667 11.669333 0.96 16.170667 4.693333s7.317333 9.109333 7.744 14.933333c18.304 256.128 38.101333 384.128 286.037333 494.037334 243.264 107.861333 389.418667 72.789333 437.418667 61.269333l5.034666-1.194667c23.552-5.482667 46.869333 4.672 62.698667 27.242667 23.722667 33.856 29.525333 95.957333-5.269333 149.205333-48.149333 73.642667-198.805333 119.424-388.501334 119.424z" fill="#EFD358" />
    </symbol>
    <symbol id="icon-apple" viewBox="0 0 128 128" version="1.1" xml:space="preserve" xmlns="http://www.w3.org/2000/svg" xmlns:xlink="http://www.w3.org/1999/xlink">
        <path class="st13" d="M45.183,11.223c-3.357,5.226-3.77,11.334-1.703,16.649      c5.988-0.788,11.559-3.997,14.916-9.223C61.753,13.423,62.166,7.315,60.099,2C54.111,2.788,48.54,5.997,45.183,11.223z" id="XMLID_733_"/>
        <path class="st14" d="M43.931,36.342c-1.104,0-2-0.896-2-2v-2.594c0-4.864-2.416-9.352-6.461-12.007      c-0.923-0.606-1.181-1.846-0.575-2.77c0.606-0.924,1.845-1.181,2.77-0.575c5.177,3.397,8.267,9.136,8.267,15.352v2.594      C45.931,35.446,45.036,36.342,43.931,36.342z"/>
        <path class="st123" d="M56.048,107.476c10.097-2.316,22.099-15.179,25.973-28.413     c3.262-10.394,2.978-19.246,1.727-25.764c-2.365-12.319-12.479-21.778-24.756-22.34c-0.435-0.02-0.872-0.03-1.311-0.03     c-4.47,0-8.693,1.048-12.451,2.903c-0.776,0.383-1.685,0.383-2.461,0c-3.758-1.855-7.981-2.903-12.451-2.903     C14.678,30.929,2,42.18,2,59.398C2,83.177,15.729,116.726,56.048,107.476z" id="XMLID_737_"/>
        <path d="M19.35,82.47c-0.13,0-0.26-0.01-0.39-0.04c-0.13-0.02-0.25-0.06-0.37-0.11c-0.13-0.05-0.24-0.11-0.35-0.18     c-0.11-0.08-0.21-0.16-0.3-0.25c-0.38-0.38-0.59-0.89-0.59-1.42c0-0.52,0.21-1.04,0.59-1.41c0.46-0.47,1.15-0.68,1.8-0.55     c0.13,0.03,0.26,0.07,0.38,0.12c0.12,0.05,0.23,0.11,0.34,0.18c0.11,0.07,0.21,0.16,0.31,0.25c0.37,0.37,0.58,0.89,0.58,1.41     c0,0.53-0.21,1.04-0.58,1.42c-0.1,0.09-0.2,0.17-0.31,0.25c-0.11,0.07-0.22,0.13-0.34,0.18c-0.12,0.05-0.25,0.09-0.38,0.11     C19.61,82.46,19.48,82.47,19.35,82.47z"/>
        <path class="st124" d="M22.667,59.398c0-13.091,7.333-22.727,17.721-26.597c-3.13-1.202-6.52-1.872-10.071-1.872     C14.678,30.929,2,42.18,2,59.398c0,23.346,13.236,56.104,51.872,48.538C31.031,102.467,22.667,77.957,22.667,59.398z" id="XMLID_434_"/>
        <path class="st125" d="M12.333,59.398c0-15.219,9.909-25.771,23.01-28.016c-1.631-0.295-3.31-0.453-5.026-0.453     C14.678,30.929,2,42.18,2,59.398c0,22.192,11.961,52.886,46.328,49.369C21.858,105.773,12.333,79.2,12.333,59.398z" id="XMLID_438_"/>
        <path class="st25" d="M15.942,76c-0.913,0-1.737-0.629-1.948-1.556c-1.114-4.893-1.704-10.096-1.704-15.046     c0-3.165,0.408-6.226,1.213-9.098c0.298-1.063,1.401-1.687,2.466-1.386c1.063,0.298,1.684,1.402,1.386,2.466     c-0.707,2.52-1.065,5.218-1.065,8.018c0,4.656,0.555,9.552,1.604,14.158c0.245,1.077-0.429,2.149-1.506,2.395     C16.239,75.983,16.09,76,15.942,76z"/>
        <path class="st126" d="M47.091,70.675c0.4,0.381,0.913,0.571,1.425,0.571c0.545,0,1.09-0.214,1.497-0.641     c0.788-0.826,0.756-2.134-0.07-2.922c-0.699-0.666-16.957-16.5-3.149-32.501c0.539-0.625,0.632-1.478,0.319-2.186     c-0.638,0.259-1.269,0.532-1.884,0.836c-0.776,0.383-1.685,0.383-2.461,0c-0.046-0.023-0.093-0.042-0.139-0.064     C28.214,52.278,46.896,70.489,47.091,70.675z" id="XMLID_526_"/>
        <path class="st127" d="M101.767,124.654c8.563-1.981,18.742-12.982,22.027-24.3     c2.767-8.889,2.526-16.46,1.464-22.035c-2.006-10.536-10.583-18.626-20.995-19.107c-0.368-0.017-0.739-0.026-1.112-0.026     c-3.791,0-7.372,0.896-10.56,2.483c-0.658,0.328-1.429,0.328-2.087,0c-3.187-1.587-6.769-2.483-10.56-2.483     c-13.263,0-24.62,9.635-24.015,24.348C56.767,103.889,67.574,132.564,101.767,124.654z" id="XMLID_729_"/>
        <path class="st128" d="M123.795,96.22c-3.286,11.319-13.464,22.319-22.027,24.3     c-32.882,7.607-44.904-18.631-45.779-38.741c-0.035,0.577-0.058,1.16-0.058,1.755c0,20.337,11.644,49.03,45.837,41.12     c8.563-1.981,18.742-12.982,22.027-24.3c1.892-6.079,2.376-11.54,2.155-16.169C125.781,87.828,125.15,91.864,123.795,96.22z" id="XMLID_32_"/>
        <ellipse class="st128" cx="90.965" cy="90.526" id="XMLID_728_" rx="13.213" ry="19.633"/>
        <path class="st129" d="M94.216,92.526h-5.194c-1.104,0-2-0.896-2-2s0.896-2,2-2h5.194c1.104,0,2,0.896,2,2      S95.32,92.526,94.216,92.526z"/>
        <path class="st129" d="M94.216,83.937h-5.194c-1.104,0-2-0.896-2-2s0.896-2,2-2h5.194c1.104,0,2,0.896,2,2      S95.32,83.937,94.216,83.937z"/>
        <path class="st129" d="M94.216,101.115h-5.194c-1.104,0-2-0.896-2-2s0.896-2,2-2h5.194c1.104,0,2,0.896,2,2      S95.32,101.115,94.216,101.115z"/>
    </symbol>
    <symbol id="icon-fork" viewBox="0 0 32 32" version="1.1" xml:space="preserve" xmlns="http://www.w3.org/2000/svg" xmlns:serif="http://www.serif.com/" xmlns:xlink="http://www.w3.org/1999/xlink">
        <path d="M390,351.417C388.235,350.336 387,347.868 387,345C387,341.137 389.24,338 392,338C394.76,338 397,341.137 397,345C397,347.868 395.765,350.336 394,351.417L394,364.033C394,365.119 393.119,366 392.033,366C392.011,366 391.989,366 391.967,366C390.881,366 390,365.119 390,364.033L390,351.417Z" style="fill:rgb(144,224,239);"/>
        <path d="M404,351L404,364.033C404,365.119 404.881,366 405.967,366C405.989,366 406.011,366 406.033,366C407.119,366 408,365.119 408,364.033L408,351L408.002,351C408.532,351 409.04,350.789 409.415,350.415C409.79,350.04 410,349.532 410,349.002C410,346.632 410,343 410,343L402,343L402,349C402,350.105 402.895,351 404,351C404,351 404,351 404,351Z" style="fill:rgb(144,224,239);"/>
        <path d="M390,351.94L390,364.033C390,365.672 391.328,367 392.967,367L393.033,367C394.672,367 396,365.672 396,364.033C396,364.033 396,351.94 396,351.94C397.759,350.586 399,347.999 399,345C399,342.392 398.065,340.087 396.668,338.654C395.643,337.601 394.368,337 393,337C391.632,337 390.357,337.601 389.332,338.654C387.935,340.087 387,342.392 387,345C387,347.998 388.241,350.586 390,351.94ZM394,360L394,364.033C394,364.567 393.567,365 393.033,365C393.033,365 392.967,365 392.967,365C392.433,365 392,364.567 392,364.033L392,360L394,360ZM394,358L392,358L392,351.417C392,351.069 391.819,350.746 391.522,350.564C390,349.632 389,347.474 389,345C389,342.972 389.678,341.164 390.764,340.049C391.394,339.403 392.16,339 393,339C393.84,339 394.606,339.403 395.236,340.049C396.322,341.164 397,342.972 397,345C397,347.474 396,349.632 394.478,350.564C394.181,350.746 394,351.069 394,351.417L394,358Z" style="fill:rgb(25,144,167);"/>
        <path d="M405,351.829L405,364.033C405,365.672 406.328,367 407.967,367L408.033,367C409.672,367 411,365.672 411,364.033L411,351.829C411.418,351.681 411.802,351.441 412.122,351.122C412.684,350.56 413,349.797 413,349.002L413,338C413,337.448 412.552,337 412,337C411.448,337 411,337.448 411,338L411,342L409,342L409,338C409,337.448 408.552,337 408,337C407.448,337 407,337.448 407,338L407,342L405,342L405,338C405,337.448 404.552,337 404,337C403.448,337 403,337.448 403,338L403,349C403,350.306 403.835,351.418 405,351.829ZM409,360L407,360L407,364.033C407,364.567 407.433,365 407.967,365C407.967,365 408.033,365 408.033,365C408.567,365 409,364.567 409,364.033L409,360ZM409,358L409,351.268C409,350.62 409.483,350.073 410.126,349.993C410.126,349.992 410.127,349.992 410.127,349.992C410.345,349.965 410.55,349.865 410.708,349.708C410.895,349.521 411,349.267 411,349.002L411,344.002L405,344C405,344 405,349 405,349C405,349.487 405.348,349.892 405.808,349.982C405.808,349.982 405.808,349.982 405.808,349.982C406.5,350.116 407,350.722 407,351. 427L407,358L409,358Z" style="fill:rgb(25,144,167);"/>
    </symbol>
    <symbol id="icon-arrow-up" fill="currentColor" version="1.1"  xmlns="http://www.w3.org/2000/svg" xmlns:xlink="http://www.w3.org/1999/xlink" 
	 viewBox="0 0 512.01 512.01" xml:space="preserve">
		<path d="M505.755,358.256L271.088,123.589c-8.341-8.341-21.824-8.341-30.165,0L6.256,358.256c-8.341,8.341-8.341,21.824,0,30.165
			s21.824,8.341,30.165,0l219.584-219.584l219.584,219.584c4.16,4.16,9.621,6.251,15.083,6.251c5.462,0,10.923-2.091,15.083-6.251
			C514.096,380.08,514.096,366.597,505.755,358.256z"/>
    </symbol>
</svg>
